<svg width="22" height="22" viewBox="0 0 22 22" fill="none" xmlns="http://www.w3.org/2000/svg">
<path fill-rule="evenodd" clip-rule="evenodd" d="M3.288 12.6486C4.104 12.6486 4.851 12.3516 5.426 11.8586C5.66336 12.3624 6.0248 12.7977 6.47643 13.1236C6.92805 13.4495 7.45505 13.6553 8.008 13.7218C8.56095 13.7883 9.12172 13.7132 9.63771 13.5036C10.1537 13.294 10.608 12.9568 10.958 12.5236C11.3081 12.9568 11.7624 13.294 12.2785 13.5035C12.7945 13.7129 13.3553 13.7879 13.9083 13.7214C14.4612 13.6548 14.9882 13.4488 15.4398 13.1229C15.8914 12.7969 16.2527 12.3615 16.49 11.8576C16.8968 12.2059 17.3825 12.4496 17.9049 12.5674C18.4273 12.6852 18.9705 12.6735 19.4874 12.5335C20.0043 12.3935 20.4791 12.1293 20.8706 11.7639C21.2621 11.3985 21.5584 10.943 21.7337 10.437C21.9091 9.93098 21.9581 9.38981 21.8766 8.86054C21.7951 8.33127 21.5855 7.82992 21.266 7.40012C20.9466 6.97032 20.527 6.62507 20.0437 6.39441C19.5604 6.16375 19.0281 6.05466 18.493 6.07664C18.1199 4.35551 17.1688 2.81398 15.798 1.70844C14.4271 0.602908 12.7191 0 10.958 0C9.1969 0 7.48888 0.602908 6.11802 1.70844C4.74716 2.81398 3.79609 4.35551 3.423 6.07664L3.287 6.07464C2.41523 6.07464 1.57917 6.42095 0.96274 7.03738C0.346308 7.65381 0 8.48987 0 9.36164C0 10.2334 0.346308 11.0695 0.96274 11.6859C1.57917 12.3023 2.41623 12.6486 3.288 12.6486ZM5.004 13.8316C4.07385 14.1882 3.0558 14.2466 2.091 13.9986L3.216 21.1246L3.316 21.7576H18.598L18.698 21.1246L19.823 13.9986C18.8582 14.2466 17.8401 14.1882 16.91 13.8316C16.343 14.4016 15.633 14.8316 14.837 15.0596L14.29 20.2576H12.782L13.31 15.2406C12.4751 15.2063 11.6639 14.9528 10.958 14.5056C10.2518 14.953 9.44027 15.2065 8.605 15.2406L9.133 20.2576H7.625L7.078 15.0596C6.29383 14.8332 5.58036 14.4106 5.005 13.8316" fill="black"/>
</svg>
