<svg width="22" height="20" viewBox="0 0 22 20" fill="none" xmlns="http://www.w3.org/2000/svg">
<path d="M2.28882 14.7502H9.80082M17.3128 14.7502H19.8168M11.2848 2.75024C11.9479 2.75024 12.5837 3.01364 13.0526 3.48248C13.5214 3.95132 13.7848 4.5872 13.7848 5.25024C13.7848 5.91329 13.5214 6.54917 13.0526 7.01801C12.5837 7.48685 11.9479 7.75024 11.2848 7.75024C10.6218 7.75024 9.98589 7.48685 9.51705 7.01801C9.04821 6.54917 8.78482 5.91329 8.78482 5.25024C8.78482 4.5872 9.04821 3.95132 9.51705 3.48248C9.98589 3.01364 10.6218 2.75024 11.2848 2.75024ZM11.2848 2.75024C11.4518 2.25024 12.1848 1.15024 13.7848 0.750244" stroke="black" stroke-width="1.5" stroke-linecap="round" stroke-linejoin="round"/>
<path d="M8.77074 5.76518C2.82074 8.01418 0.421743 9.05218 0.785743 9.79618C2.76574 10.7322 6.40074 10.4912 10.1207 10.3512C11.1447 10.3132 12.1557 10.8212 12.3877 11.8282C12.5517 12.5392 12.5947 13.1602 12.9177 13.5542C13.1037 13.7802 13.4187 13.8562 13.7007 13.7832C14.4607 13.5832 14.7747 12.7342 15.1507 11.2432C15.2237 10.9532 15.3277 10.6402 15.6087 10.5432C16.8687 10.1052 20.7487 11.0702 20.7487 9.29318C20.6857 7.44318 20.0117 6.29018 17.8487 4.57518C17.1553 4.0216 16.2774 3.75209 15.3927 3.82118C14.4677 3.89518 14.0367 4.01618 13.7617 4.25318" stroke="black" stroke-width="1.5" stroke-linecap="round" stroke-linejoin="round"/>
<path d="M0.762695 9.74328L1.7387 14.0483C2.2377 16.3023 2.4877 17.4293 3.3097 18.0903C4.1327 18.7503 5.2867 18.7503 7.5957 18.7503H16.1727C17.8957 18.7503 18.7567 18.7503 19.3277 18.2323C19.8997 17.7143 19.9837 16.8573 20.1537 15.1423L20.7437 9.38428" stroke="black" stroke-width="1.5" stroke-linecap="round"/>
</svg>
