<svg width="20" height="17" viewBox="0 0 20 17" fill="none" xmlns="http://www.w3.org/2000/svg">
<path d="M12.75 6.76075C10.28 9.34775 7.809 15.6978 7.809 15.6978C7.809 15.6978 4.279 6.76075 0.75 4.69775" stroke="black" stroke-width="1.5" stroke-linecap="round" stroke-linejoin="round"/>
<path d="M18.246 1.27468L18.672 5.69868C18.948 8.56868 16.797 11.1237 13.927 11.4007C11.111 11.6707 8.55996 9.61268 8.28896 6.79668C8.22413 6.127 8.29193 5.45112 8.48847 4.80766C8.68502 4.16421 9.00645 3.5658 9.43441 3.04665C9.86236 2.52749 10.3884 2.09778 10.9826 1.78206C11.5767 1.46635 12.2272 1.27083 12.897 1.20668L17.613 0.752675C17.6888 0.745365 17.7653 0.753071 17.8382 0.775351C17.9111 0.797631 17.9788 0.83405 18.0376 0.882526C18.0964 0.931002 18.1451 0.990585 18.1808 1.05787C18.2166 1.12516 18.2387 1.19883 18.246 1.27468Z" stroke="black" stroke-width="1.5" stroke-linecap="round" stroke-linejoin="round"/>
</svg>
